<svg xmlns="http://www.w3.org/2000/svg" style="display: none;"><symbol id="chimney" viewBox="0 0 185.533 185.533"><title>chimney</title><path style="fill:#142b35;" d="M177.673,171.44h-85.75c-0.034,0-0.068,0-0.103,0H7.95c-1.381,0-2.5-1.119-2.5-2.5V94.375H2.5 c-1.381,0-2.5-1.119-2.5-2.5V32.489c0-1.381,1.119-2.5,2.5-2.5H38V16.593c0-1.381,1.119-2.5,2.5-2.5h15.669 c1.381,0,2.5,1.119,2.5,2.5v13.396h72.679l1.475-1.904c0.473-0.611,1.203-0.969,1.976-0.969s1.503,0.358,1.976,0.969l48.235,62.259 c0.584,0.754,0.688,1.775,0.269,2.632s-1.291,1.399-2.245,1.399h-2.86v74.565C180.173,170.321,179.054,171.44,177.673,171.44z M94.423,166.44h80.75V91.875c0-1.381,1.119-2.5,2.5-2.5h0.261l-43.136-55.677L91.663,89.375h0.26c1.381,0,2.5,1.119,2.5,2.5V166.44 z M83.421,166.44h6.002V94.375h-2.859c-0.034,0-0.068,0-0.103,0H10.45v72.065h49.611v-30.983c0-1.381,1.119-2.5,2.5-2.5h18.359 c1.381,0,2.5,1.119,2.5,2.5V166.44z M65.062,166.421h13.359v-28.464H65.062V166.421z M5,89.375h80.236l42.136-54.387H58.668v19.3 c0,1.381-1.119,2.5-2.5,2.5H40.5c-1.381,0-2.5-1.119-2.5-2.5v-19.3H5V89.375z M43,51.789h10.669V19.093H43V51.789z M162.184,160.341 h-18.359c-1.381,0-2.5-1.119-2.5-2.5v-22.384c0-1.381,1.119-2.5,2.5-2.5h18.359c1.381,0,2.5,1.119,2.5,2.5v22.384 C164.684,159.221,163.564,160.341,162.184,160.341z M146.324,155.341h13.359v-17.384h-13.359V155.341z M125.772,160.341h-18.359 c-1.381,0-2.5-1.119-2.5-2.5v-22.384c0-1.381,1.119-2.5,2.5-2.5h18.359c1.381,0,2.5,1.119,2.5,2.5v22.384 C128.272,159.221,127.153,160.341,125.772,160.341z M109.913,155.341h13.359v-17.384h-13.359V155.341z M47.958,160.341H20.97 c-1.381,0-2.5-1.119-2.5-2.5v-22.384c0-1.381,1.119-2.5,2.5-2.5h26.989c1.381,0,2.5,1.119,2.5,2.5v22.384 C50.458,159.221,49.339,160.341,47.958,160.341z M23.47,155.341h21.989v-17.384H23.47V155.341z M162.184,126.048h-18.359 c-1.381,0-2.5-1.119-2.5-2.5v-22.383c0-1.381,1.119-2.5,2.5-2.5h18.359c1.381,0,2.5,1.119,2.5,2.5v22.383 C164.684,124.928,163.564,126.048,162.184,126.048z M146.324,121.048h13.359v-17.383h-13.359V121.048z M125.772,126.048h-18.359 c-1.381,0-2.5-1.119-2.5-2.5v-22.383c0-1.381,1.119-2.5,2.5-2.5h18.359c1.381,0,2.5,1.119,2.5,2.5v22.383 C128.272,124.928,127.153,126.048,125.772,126.048z M109.913,121.048h13.359v-17.383h-13.359V121.048z M80.921,126.048H62.562 c-1.381,0-2.5-1.119-2.5-2.5v-22.383c0-1.381,1.119-2.5,2.5-2.5h18.359c1.381,0,2.5,1.119,2.5,2.5v22.383 C83.421,124.928,82.302,126.048,80.921,126.048z M65.062,121.048h13.359v-17.383H65.062V121.048z M47.958,126.048H20.97 c-1.381,0-2.5-1.119-2.5-2.5v-22.383c0-1.381,1.119-2.5,2.5-2.5h26.989c1.381,0,2.5,1.119,2.5,2.5v22.383 C50.458,124.928,49.339,126.048,47.958,126.048z M23.47,121.048h21.989v-17.383H23.47V121.048z"/></symbol><symbol id="maps-and-flags" viewBox="0 0 186.562 186.562"><title>maps-and-flags</title><path style="fill:#142b35;" d="M184.062,165.949H2.5c-1.011,0-1.923-0.609-2.31-1.543c-0.387-0.934-0.173-2.009,0.542-2.724 l40.296-40.296c0.469-0.469,1.104-0.732,1.768-0.732h22.626c-9.697-16.48-16.774-38.136-16.774-54.553 c0-28.482,16.685-45.486,44.633-45.486c27.947,0,44.632,17.004,44.632,45.486c0,15.049-5.344,34.536-13.947,50.857 c-0.955,1.811-1.927,3.544-2.916,5.196h24.214c0.663,0,1.299,0.263,1.768,0.732l38.797,38.797c0.715,0.715,0.929,1.79,0.542,2.724 C185.985,165.34,185.073,165.949,184.062,165.949z M8.536,160.949h169.491l-33.797-33.797h-26.384 c-7.931,11.512-16.591,17.917-24.564,17.917c-8.2,0-17.07-7.94-24.728-19.417H43.832L8.536,160.949z M72.186,121.989 c7.367,11.322,15.13,18.081,21.096,18.081c8.047,0,17.865-9.512,26.263-25.444c8.247-15.646,13.37-34.24,13.37-48.525 c0-25.729-14.445-40.486-39.632-40.486S53.649,40.37,53.649,66.099c0,13.885,5.42,32.467,14.145,48.496 c1.358,2.494,2.746,4.839,4.15,7.018C72.035,121.731,72.116,121.856,72.186,121.989z M93.281,92.679 c-14.758,0-26.765-12.006-26.765-26.765s12.006-26.765,26.765-26.765c14.758,0,26.764,12.006,26.764,26.765 S108.039,92.679,93.281,92.679z M93.281,44.149c-12.001,0-21.765,9.764-21.765,21.765s9.764,21.765,21.765,21.765 s21.764-9.764,21.764-21.765S105.282,44.149,93.281,44.149z"/></symbol><symbol id="planning" viewBox="0 0 151.91 151.91"><title>planning</title><path style="fill:#142b35;" d="M143.972,150.268c-0.64,0-1.28-0.244-1.768-0.732c-0.977-0.977-0.977-2.559,0-3.535l1.107-1.107 H29.133L30.24,146c0.977,0.977,0.977,2.559,0,3.535c-0.976,0.977-2.56,0.977-3.535,0l-5.313-5.313 c-0.496-0.496-0.74-1.148-0.732-1.799c0-0.01,0-0.021,0-0.031c0-0.86,0.434-1.618,1.095-2.068l5.075-5.074 c0.976-0.977,2.56-0.977,3.535,0c0.977,0.977,0.977,2.559,0,3.535l-1.107,1.107h114.179l-1.107-1.107 c-0.977-0.977-0.977-2.559,0-3.535c0.976-0.977,2.56-0.977,3.535,0l5.313,5.313c0.497,0.496,0.74,1.148,0.732,1.799 c0,0.011,0,0.021,0,0.031c0,0.86-0.434,1.618-1.095,2.068l-5.075,5.074C145.252,150.024,144.612,150.268,143.972,150.268z M7.875,132.893c-0.86,0-1.619-0.435-2.068-1.096l-5.074-5.074c-0.977-0.977-0.977-2.559,0-3.535c0.976-0.977,2.56-0.977,3.535,0 l1.107,1.107V10.115l-1.107,1.107c-0.976,0.977-2.56,0.977-3.535,0c-0.977-0.977-0.977-2.559,0-3.535l5.313-5.313 c0.496-0.496,1.144-0.749,1.798-0.732c0.886,0.021,1.645,0.426,2.1,1.096l5.074,5.074c0.977,0.977,0.977,2.559,0,3.535 c-0.976,0.977-2.56,0.977-3.535,0l-1.107-1.107v114.18l1.107-1.107c0.976-0.977,2.56-0.977,3.535,0c0.977,0.977,0.977,2.559,0,3.535 l-5.313,5.313c-0.496,0.496-1.154,0.746-1.798,0.732C7.896,132.893,7.886,132.893,7.875,132.893z M149.41,125.82H28.597 c-1.381,0-2.5-1.119-2.5-2.5V4.143c0-1.381,1.119-2.5,2.5-2.5h72.194c1.381,0,2.5,1.119,2.5,2.5v48.523h46.118 c1.381,0,2.5,1.119,2.5,2.5v68.153C151.91,124.7,150.791,125.82,149.41,125.82z M103.184,120.82h43.726V57.666h-43.726V120.82z M55.292,120.82h42.893V87.332H55.292V120.82z M31.097,120.82h19.194V87.332H31.097V120.82z M52.792,82.332h45.393V55.166 c0-0.253,0.038-0.497,0.107-0.728V28.332H31.097v54H52.792z M67.141,23.332h31.151V6.643H67.141V23.332z M31.097,23.332h31.043 V6.643H31.097V23.332z"/></symbol><symbol id="money" viewBox="0 0 193 193"><title>money</title><path style="fill:#142b35;" d="M150.14,138.849c-0.006,0-0.011,0-0.017,0H2.5c-1.381,0-2.5-1.119-2.5-2.5V93.934 c0-0.066,0.001-0.133,0.006-0.199c0.033-0.487,0.207-0.937,0.479-1.308c0.104-0.143,0.226-0.275,0.361-0.395 c0.002-0.002,0.002-0.002,0.004-0.004c0.037-0.032,0.074-0.063,0.112-0.093l46.904-37.241c0.442-0.351,0.99-0.542,1.555-0.542 h141.067c0.12-0.006,0.223,0.007,0.333,0.021l0,0c0.005,0,0.009,0.002,0.012,0.002h0.001c0.305,0.041,0.596,0.138,0.86,0.281 c0.001,0.001,0.002,0.001,0.003,0.002c0,0,0,0,0.001,0c0.215,0.118,0.41,0.265,0.578,0.435c0.187,0.189,0.345,0.409,0.466,0.654 c0.093,0.189,0.163,0.391,0.206,0.6c0,0.001,0,0.002,0,0.002c0,0.001,0,0.002,0,0.003c0.036,0.173,0.052,0.349,0.051,0.522v11.452 c0,0.005,0,0.01,0,0.014v10.562c0,0.005,0,0.01,0,0.014v10.667c0,0.005,0,0.01,0,0.014v9.777c0,0.698-0.292,1.365-0.806,1.839 l-40.359,37.176c-0.002,0.002-0.005,0.004-0.007,0.007h0c-0.003,0.003-0.006,0.002-0.008,0.008c0,0-0.001,0-0.001,0.001 c-0.42,0.38-0.969,0.619-1.574,0.644C150.209,138.848,150.175,138.849,150.14,138.849z M102.76,133.849h44.88v-5.358h-44.88V133.849 z M53.839,133.849H97.76V96.408H53.839V133.849z M5,133.849h43.839v-5.358H5V133.849z M152.641,127.739v2.908L188,98.077V95.1 L152.641,127.739z M102.76,123.491h44.88v-6.138h-44.88V123.491z M5,123.491h43.839v-6.138H5V123.491z M152.641,117.058v3.876 L188,88.295v-3.876L152.641,117.058z M102.76,112.353h44.88v-5.699h-44.88V112.353z M5,112.353h43.839v-5.699H5V112.353z M152.641,106.483v3.771L188,77.615v-3.771L152.641,106.483z M102.76,101.654h44.88v-5.246h-44.88V101.654z M5,101.654h43.839 v-5.246H5V101.654z M152.641,95.002v4.676L188,67.039v-4.677L152.641,95.002z M106.641,91.408h42.522l34.943-32.255h-42.625 l-4.898,4.535c1.644,0.933,3.282,2.354,3.882,4.455c0.802,2.806-0.452,5.814-3.725,8.944c-7.998,7.646-20.262,8.517-23.922,8.602 L106.641,91.408z M58.267,91.408h41.014l10.837-10.033c0.01-0.01,0.02-0.019,0.03-0.028l23.972-22.193H97.133l-9.779,8.115 c-0.026,0.022-0.052,0.044-0.079,0.065L58.267,91.408z M9.669,91.408h40.768l8.944-7.423c-1.478-0.889-2.861-2.201-3.31-4.1 c-1.055-4.466,3.825-8.195,5.429-9.421c9.792-7.482,20.038-7.773,23.388-7.647l4.416-3.664H50.293L9.669,91.408z M78.2,68.368 c-3.893,0.738-8.867,2.403-13.664,6.069c-3.091,2.363-3.706,3.846-3.599,4.299c0.133,0.564,1.406,1.286,2.699,1.718L78.2,68.368z M132.618,67.358l-13.677,12.663c4.493-0.815,10.223-2.608,14.344-6.548c1.721-1.646,2.608-3.123,2.374-3.954 C135.418,68.669,133.982,67.847,132.618,67.358z"/></symbol></svg>